<svg id="Grupo_633" data-name="Grupo 633" xmlns="http://www.w3.org/2000/svg" width="159.213" height="47.637" viewBox="0 0 159.213 47.637">
  <ellipse id="Elipse_29" data-name="Elipse 29" cx="17.326" cy="18.588" rx="17.326" ry="18.588" transform="translate(124.561 10.461)" fill="#75bf43"/>
  <path id="Caminho_9050" data-name="Caminho 9050" d="M531.635,77.126h-4.08a.419.419,0,0,1-.061-.216,1.805,1.805,0,0,1,0-.544c.165-.4.5-.72.521-1.188a1.768,1.768,0,1,0-3.533-.13c-.018.516.343.883.529,1.325a2.168,2.168,0,0,1,0,.651.181.181,0,0,1-.038.1h-4.021a1.462,1.462,0,0,0-1.457,1.457v3.945a.387.387,0,0,1-.356.234,1.741,1.741,0,0,1-.509,0c-.371-.155-.672-.471-1.106-.486a1.648,1.648,0,0,0-.12,3.294c.483.018.824-.32,1.236-.493a2.055,2.055,0,0,1,.608,0c.079,0,.193.1.247.231v3.955a1.462,1.462,0,0,0,1.457,1.457h3.757a1.006,1.006,0,0,0,.3-.369,2.168,2.168,0,0,0,0-.651c-.186-.443-.549-.809-.529-1.325a1.768,1.768,0,0,1,3.533.13c-.018.465-.356.788-.521,1.188a1.8,1.8,0,0,0,0,.544.973.973,0,0,0,.292.483h3.848a1.462,1.462,0,0,0,1.457-1.457V78.584A1.46,1.46,0,0,0,531.635,77.126Z" transform="translate(-384.618 -54.69)" fill="#fff"/>
  <path id="Caminho_9051" data-name="Caminho 9051" d="M309.76,61.826a16.112,16.112,0,0,0-6.1-2.414l-5.611-1.231a18.123,18.123,0,0,1-3.876-1.1,1.18,1.18,0,0,1-.783-1.173,1.667,1.667,0,0,1,.913-1.554,6.58,6.58,0,0,1,3.411-.74,7.91,7.91,0,0,1,3.312.6,2.894,2.894,0,0,1,1.77,2.668l.086,1.287h9.335l-.053-1.419a9.967,9.967,0,0,0-4.383-8.279,16.575,16.575,0,0,0-9.6-2.76c-4.438,0-7.9,1.007-10.271,2.991a9.607,9.607,0,0,0-3.65,7.651,8.366,8.366,0,0,0,3.866,7.557c1.445.931,3.907,1.745,7.534,2.49l3.467.707a14.168,14.168,0,0,1,3.968,1.216,1.169,1.169,0,0,1,.7,1.112c0,.763-.221,1.618-1.862,2.149a11.622,11.622,0,0,1-3.436.41c-2.218,0-3.752-.453-4.558-1.343a4.655,4.655,0,0,1-.888-2.355l-.2-1.429-9.088-.015-.025,1.638a9.856,9.856,0,0,0,4.179,8.363c2.666,1.953,6.313,2.945,10.84,2.945,4.461,0,8-1.015,10.525-3.019a9.615,9.615,0,0,0,3.9-7.806A8.361,8.361,0,0,0,309.76,61.826Z" transform="translate(-211.563 -34.084)" fill="#5ec09c"/>
  <path id="Caminho_9052" data-name="Caminho 9052" d="M401.456,45.84h9.579V80.071h-6.2s.043-10.632.043-11.283l-6.038,11.283h-6.471l-6-11.283c0,.651.043,11.283.043,11.283h-6.2V45.84H389.9l5.8,7.465Z" transform="translate(-283.503 -34.181)" fill="#dbe255"/>
  <path id="Caminho_9053" data-name="Caminho 9053" d="M200.96,45.84V51.9h-5.827V80.071h-6.555V51.9H179.21V45.84Z" transform="translate(-133.628 -34.181)" fill="#896daf"/>
  <path id="Caminho_9054" data-name="Caminho 9054" d="M278.173,80.068H271.54V45.84h6.633Z" transform="translate(-202.474 -34.181)" fill="#3bc1d2"/>
  <path id="Caminho_9055" data-name="Caminho 9055" d="M109.763,45.84h-5.509a1.767,1.767,0,0,1,.211.908c-.018.471-.359.794-.524,1.2a1.838,1.838,0,0,0,0,.549.4.4,0,0,0,.064.219h4.11a1.471,1.471,0,0,1,1.468,1.468v3.927a.321.321,0,0,1-.071.01,1.838,1.838,0,0,1-.549,0c-.4-.168-.727-.509-1.2-.524a1.78,1.78,0,1,0-.13,3.558c.521.02.89-.346,1.335-.534a1.965,1.965,0,0,1,.61-.005v4.332a1.471,1.471,0,0,1-1.468,1.468h-4.146a1.778,1.778,0,0,0,.008.582c.188.445.554.814.534,1.335a1.78,1.78,0,1,1-3.558-.13c.018-.471.359-.794.524-1.2a1.838,1.838,0,0,0,0-.549c0-.015-.005-.028-.005-.043H97.35a1.471,1.471,0,0,1-1.468-1.468V56.6a1.3,1.3,0,0,1,.438.02c.445.188.814.554,1.335.534a1.78,1.78,0,1,0-.13-3.558c-.471.018-.794.359-1.2.524a1.353,1.353,0,0,1-.448.01v-3.95a1.471,1.471,0,0,1,1.468-1.468H101.4a.2.2,0,0,0,.038-.1,2.2,2.2,0,0,0,0-.656c-.188-.445-.554-.814-.534-1.335a1.732,1.732,0,0,1,.214-.776H90.9v20.62a18.028,18.028,0,0,0,1.58,8.33q2.964,5.463,11.255,5.461t11.232-5.461a18.029,18.029,0,0,0,1.58-8.33V45.84Z" transform="translate(-67.78 -34.181)" fill="#c378b1"/>
  <path id="Caminho_9056" data-name="Caminho 9056" d="M123.683,42.147a1.78,1.78,0,0,0-1.633.939h3.136A1.78,1.78,0,0,0,123.683,42.147Z" transform="translate(-91.007 -31.426)" fill="#fff"/>
  <path id="Caminho_9057" data-name="Caminho 9057" d="M8.244,76.115a1.163,1.163,0,0,1,.415.02c.422.178.773.524,1.267.506A1.689,1.689,0,0,0,9.8,73.267c-.445.015-.753.338-1.134.5a1.344,1.344,0,0,1-.422.01V70.031A1.4,1.4,0,0,1,9.635,68.64h3.843a.182.182,0,0,0,.036-.1,2.068,2.068,0,0,0,0-.623c-.178-.422-.524-.773-.506-1.267a1.689,1.689,0,0,1,3.375.125c-.015.445-.338.753-.5,1.134a1.739,1.739,0,0,0,0,.521.4.4,0,0,0,.059.206h3.9a1.4,1.4,0,0,1,1.391,1.391v3.724a.3.3,0,0,1-.066.01,1.737,1.737,0,0,1-.521,0c-.382-.158-.689-.481-1.134-.5a1.689,1.689,0,0,0-.125,3.375c.493.018.844-.328,1.267-.506a1.846,1.846,0,0,1,.58-.005v3.94h9.035l-11.3-34.23H11.408L0,80.068H8.244V76.115Z" transform="translate(0 -34.181)" fill="#d32028"/>
  <g id="Grupo_632" data-name="Grupo 632" transform="translate(10.601 0)">
    <path id="Caminho_9058" data-name="Caminho 9058" d="M47.975,5.224h.758A4.07,4.07,0,0,1,48.2,6.972a3.063,3.063,0,0,1-1.2,1.167,3.756,3.756,0,0,1-3.172.107,3.261,3.261,0,0,1-1.15-.865,3.938,3.938,0,0,1-.745-1.358A5.5,5.5,0,0,1,41.68,4.3a5.513,5.513,0,0,1,.265-1.742A4.085,4.085,0,0,1,42.7,1.19a3.292,3.292,0,0,1,1.17-.883A3.692,3.692,0,0,1,45.381,0a3.188,3.188,0,0,1,2.551,1.073,2.8,2.8,0,0,1,.7,1.567h-.758A2.513,2.513,0,0,0,47.405,1.6a2.332,2.332,0,0,0-.872-.694,2.913,2.913,0,0,0-2.358.01,2.6,2.6,0,0,0-.921.74,3.48,3.48,0,0,0-.593,1.157,5.076,5.076,0,0,0-.206,1.49,4.8,4.8,0,0,0,.206,1.44,3.429,3.429,0,0,0,.593,1.142,2.6,2.6,0,0,0,.913.735,2.671,2.671,0,0,0,1.167.252,2.641,2.641,0,0,0,1.3-.31,2.337,2.337,0,0,0,.9-.9A3.691,3.691,0,0,0,47.975,5.224Z" transform="translate(-41.68 0)" fill="#231f20"/>
    <path id="Caminho_9059" data-name="Caminho 9059" d="M170.939.65,174.1,8.838h-.8l-1-2.574h-3.632l-.974,2.574h-.8L170.085.65h.855ZM172.1,5.638l-1.59-4.25-1.61,4.25Z" transform="translate(-135.043 -0.485)" fill="#231f20"/>
    <path id="Caminho_9060" data-name="Caminho 9060" d="M300.352.74V8.9h-.941l-4.672-7.234V8.9h-.768V.74h.941l4.672,7.2V.74Z" transform="translate(-229.8 -0.552)" fill="#231f20"/>
    <path id="Caminho_9061" data-name="Caminho 9061" d="M421.829.65l3.162,8.188h-.8l-1-2.574h-3.632l-.974,2.574h-.8L420.975.65h.855Zm1.155,4.988L421.4,1.388l-1.61,4.25h3.2Z" transform="translate(-322.119 -0.485)" fill="#231f20"/>
    <path id="Caminho_9062" data-name="Caminho 9062" d="M550.088,8.236V8.9H544.94V.74h.771v7.5Z" transform="translate(-416.936 -0.552)" fill="#231f20"/>
  </g>
  <circle id="Elipse_30" data-name="Elipse 30" cx="1.188" cy="1.188" r="1.188" transform="translate(28.648 3.139)" fill="#00c9ff"/>
  <circle id="Elipse_31" data-name="Elipse 31" cx="1.188" cy="1.188" r="1.188" transform="translate(60.355 3.139)" fill="#00c9ff"/>
  <circle id="Elipse_32" data-name="Elipse 32" cx="1.188" cy="1.188" r="1.188" transform="translate(93.123 3.139)" fill="#00c9ff"/>
  <circle id="Elipse_33" data-name="Elipse 33" cx="1.188" cy="1.188" r="1.188" transform="translate(124.054 3.139)" fill="#00c9ff"/>
</svg>
